<svg width="646" height="479" viewBox="0 0 646 479" fill="none" xmlns="http://www.w3.org/2000/svg">
<g clip-path="url(#clip0_48_3609)">
<rect width="645.4" height="478.6" transform="scale(1.00084)" fill="#F5F0E8"/>
<rect width="645.4" height="50" transform="scale(1.00084)" fill="#1A4A2E"/>
<g opacity="0.9">
<path d="M20.0167 18.0151C20.0167 15.8041 21.8091 14.0117 24.0201 14.0117H38.0318C40.2428 14.0117 42.0351 15.8041 42.0351 18.0151V32.0268C42.0351 34.2378 40.2428 36.0301 38.0318 36.0301H24.0201C21.8091 36.0301 20.0167 34.2378 20.0167 32.0268V18.0151Z" fill="#2D6A42"/>
</g>
<g opacity="0.75">
<path d="M48.0402 25.0209C48.0402 22.8099 49.8325 21.0176 52.0435 21.0176H114.095C116.306 21.0176 118.099 22.8099 118.099 25.0209C118.099 27.2319 116.306 29.0243 114.095 29.0243H52.0435C49.8325 29.0243 48.0402 27.2319 48.0402 25.0209Z" fill="#F5F0E8"/>
</g>
<g opacity="0.4">
<path d="M241.902 25.0209C241.902 23.3627 243.247 22.0184 244.905 22.0184H278.933C280.592 22.0184 281.936 23.3627 281.936 25.0209C281.936 26.6792 280.592 28.0234 278.933 28.0234H244.905C243.247 28.0234 241.902 26.6792 241.902 25.0209Z" fill="#F5F0E8"/>
</g>
<g opacity="0.4">
<path d="M293.946 25.0209C293.946 23.3627 295.29 22.0184 296.948 22.0184H326.974C328.632 22.0184 329.976 23.3627 329.976 25.0209C329.976 26.6792 328.632 28.0234 326.974 28.0234H296.948C295.29 28.0234 293.946 26.6792 293.946 25.0209Z" fill="#F5F0E8"/>
</g>
<g opacity="0.4">
<path d="M341.986 25.0209C341.986 23.3627 343.33 22.0184 344.989 22.0184H383.02C384.679 22.0184 386.023 23.3627 386.023 25.0209C386.023 26.6792 384.679 28.0234 383.02 28.0234H344.989C343.33 28.0234 341.986 26.6792 341.986 25.0209Z" fill="#F5F0E8"/>
</g>
<g opacity="0.4">
<path d="M398.033 25.0209C398.033 23.3627 399.377 22.0184 401.035 22.0184H427.057C428.715 22.0184 430.06 23.3627 430.06 25.0209C430.06 26.6792 428.715 28.0234 427.057 28.0234H401.035C399.377 28.0234 398.033 26.6792 398.033 25.0209Z" fill="#F5F0E8"/>
</g>
<g opacity="0.9">
<path d="M553.863 18.0151C553.863 14.6986 556.552 12.01 559.868 12.01H619.919C623.235 12.01 625.924 14.6986 625.924 18.0151V32.0268C625.924 35.3433 623.235 38.0318 619.919 38.0318H559.868C556.552 38.0318 553.863 35.3433 553.863 32.0268V18.0151Z" fill="#2D6A42"/>
</g>
<rect width="645.4" height="122" transform="translate(0 50.0418) scale(1.00084)" fill="url(#paint0_linear_48_3609)"/>
<g opacity="0.85">
<path d="M20.0167 78.0653C20.0167 75.8543 21.8091 74.0619 24.0201 74.0619H409.342C411.553 74.0619 413.346 75.8543 413.346 78.0653V84.0703C413.346 86.2813 411.553 88.0736 409.342 88.0736H24.0201C21.8091 88.0736 20.0167 86.2813 20.0167 84.0703V78.0653Z" fill="#F5F0E8"/>
</g>
<g opacity="0.55">
<path d="M20.0167 100.084C20.0167 97.8727 21.8091 96.0803 24.0201 96.0803H307.257C309.468 96.0803 311.26 97.8727 311.26 100.084V102.085C311.26 104.296 309.468 106.089 307.257 106.089H24.0201C21.8091 106.089 20.0167 104.296 20.0167 102.085V100.084Z" fill="#F5F0E8"/>
</g>
<g opacity="0.9">
<path d="M20.0167 128.107C20.0167 124.791 22.7053 122.102 26.0218 122.102H94.0786C97.3951 122.102 100.084 124.791 100.084 128.107V142.119C100.084 145.435 97.3951 148.124 94.0786 148.124H26.0218C22.7053 148.124 20.0167 145.435 20.0167 142.119V128.107Z" fill="#F5F0E8"/>
</g>
<g opacity="0.5">
<mask id="path-11-inside-1_48_3609" fill="white">
<path d="M108.09 128.107C108.09 124.791 110.779 122.102 114.095 122.102H182.152C185.469 122.102 188.157 124.791 188.157 128.107V142.119C188.157 145.435 185.469 148.124 182.152 148.124H114.095C110.779 148.124 108.09 145.435 108.09 142.119V128.107Z"/>
</mask>
<path d="M114.095 122.102V122.903H182.152V122.102V121.301H114.095V122.102ZM188.157 128.107H187.357V142.119H188.157H188.958V128.107H188.157ZM182.152 148.124V147.323H114.095V148.124V148.924H182.152V148.124ZM108.09 142.119H108.891V128.107H108.09H107.29V142.119H108.09ZM114.095 148.124V147.323C111.221 147.323 108.891 144.993 108.891 142.119H108.09H107.29C107.29 145.877 110.337 148.924 114.095 148.924V148.124ZM188.157 142.119H187.357C187.357 144.993 185.027 147.323 182.152 147.323V148.124V148.924C185.911 148.924 188.958 145.877 188.958 142.119H188.157ZM182.152 122.102V122.903C185.027 122.903 187.357 125.233 187.357 128.107H188.157H188.958C188.958 124.348 185.911 121.301 182.152 121.301V122.102ZM114.095 122.102V121.301C110.337 121.301 107.29 124.348 107.29 128.107H108.09H108.891C108.891 125.233 111.221 122.903 114.095 122.903V122.102Z" fill="#F5F0E8" mask="url(#path-11-inside-1_48_3609)"/>
</g>
<rect width="645.4" height="306.6" transform="translate(0 172.144) scale(1.00084)" fill="#F5F0E8"/>
<mask id="path-13-inside-2_48_3609" fill="white">
<path d="M20.0167 196.164C20.0167 191.742 23.6015 188.157 28.0234 188.157H207.173C211.595 188.157 215.18 191.742 215.18 196.164V240.201C215.18 244.623 211.595 248.207 207.173 248.207H28.0234C23.6014 248.207 20.0167 244.623 20.0167 240.201V196.164Z"/>
</mask>
<path d="M20.0167 196.164C20.0167 191.742 23.6015 188.157 28.0234 188.157H207.173C211.595 188.157 215.18 191.742 215.18 196.164V240.201C215.18 244.623 211.595 248.207 207.173 248.207H28.0234C23.6014 248.207 20.0167 244.623 20.0167 240.201V196.164Z" fill="white" fill-opacity="0.06"/>
<path d="M28.0234 188.157V188.958H207.173V188.157V187.357H28.0234V188.157ZM215.18 196.164H214.379V240.201H215.18H215.981V196.164H215.18ZM207.173 248.207V247.407H28.0234V248.207V249.008H207.173V248.207ZM20.0167 240.201H20.8174V196.164H20.0167H19.2161V240.201H20.0167ZM28.0234 248.207V247.407C24.0436 247.407 20.8174 244.181 20.8174 240.201H20.0167H19.2161C19.2161 245.065 23.1593 249.008 28.0234 249.008V248.207ZM215.18 240.201H214.379C214.379 244.181 211.153 247.407 207.173 247.407V248.207V249.008C212.037 249.008 215.981 245.065 215.981 240.201H215.18ZM207.173 188.157V188.958C211.153 188.958 214.379 192.184 214.379 196.164H215.18H215.981C215.981 191.3 212.037 187.357 207.173 187.357V188.157ZM28.0234 188.157V187.357C23.1593 187.357 19.2161 191.3 19.2161 196.164H20.0167H20.8174C20.8174 192.184 24.0436 188.958 28.0234 188.958V188.157Z" fill="white" fill-opacity="0.08" mask="url(#path-13-inside-2_48_3609)"/>
<g opacity="0.7">
<path d="M30.8256 201.97C30.8256 200.311 32.1698 198.967 33.8281 198.967H114.896C116.554 198.967 117.898 200.311 117.898 201.97C117.898 203.628 116.554 204.972 114.896 204.972H33.8281C32.1698 204.972 30.8256 203.628 30.8256 201.97Z" fill="#2D6A42"/>
</g>
<path d="M30.8256 212.478C30.8256 211.097 31.9458 209.976 33.3277 209.976H149.425C150.807 209.976 151.927 211.097 151.927 212.478C151.927 213.86 150.807 214.98 149.425 214.98H33.3277C31.9458 214.98 30.8256 213.86 30.8256 212.478Z" fill="white" fill-opacity="0.25"/>
<mask id="path-17-inside-3_48_3609" fill="white">
<path d="M225.188 196.164C225.188 191.742 228.773 188.157 233.195 188.157H412.345C416.767 188.157 420.351 191.742 420.351 196.164V240.201C420.351 244.623 416.767 248.207 412.345 248.207H233.195C228.773 248.207 225.188 244.623 225.188 240.201V196.164Z"/>
</mask>
<path d="M225.188 196.164C225.188 191.742 228.773 188.157 233.195 188.157H412.345C416.767 188.157 420.351 191.742 420.351 196.164V240.201C420.351 244.623 416.767 248.207 412.345 248.207H233.195C228.773 248.207 225.188 244.623 225.188 240.201V196.164Z" fill="white" fill-opacity="0.06"/>
<path d="M233.195 188.157V188.958H412.345V188.157V187.357H233.195V188.157ZM420.351 196.164H419.551V240.201H420.351H421.152V196.164H420.351ZM412.345 248.207V247.407H233.195V248.207V249.008H412.345V248.207ZM225.188 240.201H225.989V196.164H225.188H224.388V240.201H225.188ZM233.195 248.207V247.407C229.215 247.407 225.989 244.181 225.989 240.201H225.188H224.388C224.388 245.065 228.331 249.008 233.195 249.008V248.207ZM420.351 240.201H419.551C419.551 244.181 416.324 247.407 412.345 247.407V248.207V249.008C417.209 249.008 421.152 245.065 421.152 240.201H420.351ZM412.345 188.157V188.958C416.324 188.958 419.551 192.184 419.551 196.164H420.351H421.152C421.152 191.3 417.209 187.357 412.345 187.357V188.157ZM233.195 188.157V187.357C228.331 187.357 224.388 191.3 224.388 196.164H225.188H225.989C225.989 192.184 229.215 188.958 233.195 188.958V188.157Z" fill="white" fill-opacity="0.08" mask="url(#path-17-inside-3_48_3609)"/>
<g opacity="0.7">
<path d="M235.997 201.97C235.997 200.311 237.341 198.967 239 198.967H320.067C321.726 198.967 323.07 200.311 323.07 201.97C323.07 203.628 321.726 204.972 320.067 204.972H239C237.341 204.972 235.997 203.628 235.997 201.97Z" fill="#2D6A42"/>
</g>
<path d="M235.997 212.478C235.997 211.097 237.117 209.976 238.499 209.976H354.596C355.978 209.976 357.098 211.097 357.098 212.478C357.098 213.86 355.978 214.98 354.596 214.98H238.499C237.117 214.98 235.997 213.86 235.997 212.478Z" fill="white" fill-opacity="0.25"/>
<mask id="path-21-inside-4_48_3609" fill="white">
<path d="M430.36 196.164C430.36 191.742 433.944 188.157 438.366 188.157H617.516C621.938 188.157 625.523 191.742 625.523 196.164V240.201C625.523 244.623 621.938 248.207 617.516 248.207H438.366C433.944 248.207 430.36 244.623 430.36 240.201V196.164Z"/>
</mask>
<path d="M430.36 196.164C430.36 191.742 433.944 188.157 438.366 188.157H617.516C621.938 188.157 625.523 191.742 625.523 196.164V240.201C625.523 244.623 621.938 248.207 617.516 248.207H438.366C433.944 248.207 430.36 244.623 430.36 240.201V196.164Z" fill="white" fill-opacity="0.06"/>
<path d="M438.366 188.157V188.958H617.516V188.157V187.357H438.366V188.157ZM625.523 196.164H624.722V240.201H625.523H626.324V196.164H625.523ZM617.516 248.207V247.407H438.366V248.207V249.008H617.516V248.207ZM430.36 240.201H431.16V196.164H430.36H429.559V240.201H430.36ZM438.366 248.207V247.407C434.387 247.407 431.16 244.181 431.16 240.201H430.36H429.559C429.559 245.065 433.502 249.008 438.366 249.008V248.207ZM625.523 240.201H624.722C624.722 244.181 621.496 247.407 617.516 247.407V248.207V249.008C622.38 249.008 626.324 245.065 626.324 240.201H625.523ZM617.516 188.157V188.958C621.496 188.958 624.722 192.184 624.722 196.164H625.523H626.324C626.324 191.3 622.38 187.357 617.516 187.357V188.157ZM438.366 188.157V187.357C433.502 187.357 429.559 191.3 429.559 196.164H430.36H431.16C431.16 192.184 434.387 188.958 438.366 188.958V188.157Z" fill="white" fill-opacity="0.08" mask="url(#path-21-inside-4_48_3609)"/>
<g opacity="0.7">
<path d="M441.169 201.97C441.169 200.311 442.513 198.967 444.171 198.967H525.239C526.897 198.967 528.241 200.311 528.241 201.97C528.241 203.628 526.897 204.972 525.239 204.972H444.171C442.513 204.972 441.169 203.628 441.169 201.97Z" fill="#2D6A42"/>
</g>
<path d="M441.169 212.478C441.169 211.097 442.289 209.976 443.671 209.976H559.768C561.15 209.976 562.27 211.097 562.27 212.478C562.27 213.86 561.15 214.98 559.768 214.98H443.671C442.289 214.98 441.169 213.86 441.169 212.478Z" fill="white" fill-opacity="0.25"/>
<path d="M20.0167 264.721C20.0167 263.339 21.137 262.219 22.5188 262.219H513.93C515.311 262.219 516.432 263.339 516.432 264.721C516.432 266.103 515.311 267.223 513.93 267.223H22.5188C21.137 267.223 20.0167 266.103 20.0167 264.721Z" fill="white" fill-opacity="0.15"/>
<path d="M20.0167 274.73C20.0167 273.348 21.137 272.228 22.5188 272.228H441.869C443.251 272.228 444.371 273.348 444.371 274.73C444.371 276.112 443.251 277.232 441.869 277.232H22.5188C21.1369 277.232 20.0167 276.112 20.0167 274.73Z" fill="white" fill-opacity="0.1"/>
<path d="M20.0167 284.738C20.0167 283.356 21.137 282.236 22.5188 282.236H368.808C370.19 282.236 371.31 283.356 371.31 284.738C371.31 286.12 370.19 287.24 368.808 287.24H22.5188C21.137 287.24 20.0167 286.12 20.0167 284.738Z" fill="white" fill-opacity="0.08"/>
</g>
<defs>
<linearGradient id="paint0_linear_48_3609" x1="0" y1="0" x2="44.5321" y2="235.582" gradientUnits="userSpaceOnUse">
<stop stop-color="#1A4A2E"/>
<stop offset="1" stop-color="#2D6A42"/>
</linearGradient>
<clipPath id="clip0_48_3609">
<rect width="645.4" height="478.6" fill="white" transform="scale(1.00084)"/>
</clipPath>
</defs>
</svg>
